HIERARCHY
ROOT Hips
{
	OFFSET -3.958830 18.904000 13.208200
	CHANNELS 6 Xposition Yposition Zposition Zrotation Yrotation Xrotation 
	JOINT LHipJoint
	{
		OFFSET 0.000000 0.000000 0.000000
		CHANNELS 3 Zrotation Yrotation Xrotation
		JOINT LeftUpLeg
		{
			OFFSET 1.800000 -1.400000 0.085000
			CHANNELS 3 Zrotation Yrotation Xrotation
			JOINT LeftLeg
			{
				OFFSET 2.215000 -6.000000 0.000000
				CHANNELS 3 Zrotation Yrotation Xrotation
				JOINT LeftFoot
				{
					OFFSET 2.500000 -6.900000 0.000000
					CHANNELS 3 Zrotation Yrotation Xrotation
					JOINT LeftToeBase
					{
						OFFSET 0.200000 -0.500000 1.950000
						CHANNELS 3 Zrotation Yrotation Xrotation
						End Site
						{
							OFFSET 0.000000 0.000000 0.000000
						}
					}
				}
			}
		}
	}
	JOINT RHipJoint
	{
		OFFSET 0.000000 0.000000 0.000000
		CHANNELS 3 Zrotation Yrotation Xrotation
		JOINT RightUpLeg
		{
			OFFSET -1.800000 -1.400000 0.085000
			CHANNELS 3 Zrotation Yrotation Xrotation
			JOINT RightLeg
			{
				OFFSET -2.215000 -6.000000 0.000000
				CHANNELS 3 Zrotation Yrotation Xrotation
				JOINT RightFoot
				{
					OFFSET -2.500000 -6.900000 0.000000
					CHANNELS 3 Zrotation Yrotation Xrotation
					JOINT RightToeBase
					{
						OFFSET -0.200000 -0.500000 1.950000
						CHANNELS 3 Zrotation Yrotation Xrotation
						End Site
						{
							OFFSET 0.000000 0.000000 0.000000
						}
					}
				}
			}
		}
	}
	JOINT LowerBack
	{
		OFFSET 0.000000 0.000000 0.000000
		CHANNELS 3 Zrotation Yrotation Xrotation
		JOINT Spine
		{
			OFFSET -0.087000 1.940000 -0.288900
			CHANNELS 3 Zrotation Yrotation Xrotation
			JOINT Spine1
			{
				OFFSET 0.000000 1.950000 0.060000
				CHANNELS 3 Zrotation Yrotation Xrotation
				JOINT Neck
				{
					OFFSET 0.000000 0.000000 0.000000
					CHANNELS 3 Zrotation Yrotation Xrotation
					JOINT Neck1
					{
						OFFSET 0.000000 1.600000 0.340000
						CHANNELS 3 Zrotation Yrotation Xrotation
						JOINT Head
						{
							OFFSET 0.000000 1.667000 -0.240000
							CHANNELS 3 Zrotation Yrotation Xrotation
							End Site
							{
								OFFSET 0.000000 0.000000 0.000000
							}
						}
					}
				}
				JOINT LeftShoulder
				{
					OFFSET 0.000000 0.000000 0.000000
					CHANNELS 3 Zrotation Yrotation Xrotation
					JOINT LeftArm
					{
						OFFSET 2.700000 1.550000 -0.730000
						CHANNELS 3 Zrotation Yrotation Xrotation
						JOINT LeftForeArm
						{
							OFFSET 5.450000 0.000000 0.000000
							CHANNELS 3 Zrotation Yrotation Xrotation
							JOINT LeftHand
							{
								OFFSET 3.450000 0.000000 0.000000
								CHANNELS 3 Zrotation Yrotation Xrotation
								JOINT LeftHandIndex1
								{
									OFFSET 0.750000 0.000000 0.000000
									CHANNELS 3 Zrotation Yrotation Xrotation
									End Site
									{
										OFFSET 0.000000 0.000000 0.000000
									}
								}
							}
						}
					}
				}
				JOINT RightShoulder
				{
					OFFSET 0.000000 0.000000 0.000000
					CHANNELS 3 Zrotation Yrotation Xrotation
					JOINT RightArm
					{
						OFFSET -2.700000 1.550000 -0.730000
						CHANNELS 3 Zrotation Yrotation Xrotation
						JOINT RightForeArm
						{
							OFFSET -5.450000 0.000000 0.000000
							CHANNELS 3 Zrotation Yrotation Xrotation
							JOINT RightHand
							{
								OFFSET -3.450000 0.000000 0.000000
								CHANNELS 3 Zrotation Yrotation Xrotation
								JOINT RightHandIndex1
								{
									OFFSET -0.750000 0.000000 0.000000
									CHANNELS 3 Zrotation Yrotation Xrotation
									End Site
									{
										OFFSET 0.000000 0.000000 0.000000
									}
								}
							}
						}
					}
				}
			}
		}
	}
}
MOTION
Frames: 6
Frame Time: 0.016667
0.587810 17.951860 -8.576100 -1.953545 17.708922 0.568478 -15.043458 12.614845 2.009037 22.549239 -1.087238 -11.516488 -2.696732 5.692046 10.970240 0.305592 4.171058 2.970096 -0.223090 -0.420250 -0.066550 18.595265 -8.545273 5.238472 -30.568983 1.622823 -33.690742 50.634491 -22.706395 24.590705 -1.452751 -8.719292 1.249078 -0.475910 -0.084760 0.062720 -4.360205 -3.000354 -8.702733 16.718814 -7.672276 14.415850 -9.328949 -4.425437 8.176127 4.466098 -5.885114 -16.368990 -19.181144 8.379268 53.363213 -1.598510 1.923110 11.843500 2.253863 6.378081 7.119236 -55.806660 28.268233 -24.547493 -86.656697 -8.106840 -5.088286 -3.088917 3.238523 0.402470 -0.200370 0.222280 -0.014660 -10.732126 -2.736338 12.418321 68.372209 -30.827385 -30.641845 89.872537 14.419694 -0.253042 2.327791 -1.518569 0.013460 -0.091260 0.067770 -0.006720 
0.533670 17.907960 -8.513520 -1.116768 17.537785 1.114999 -15.049734 12.704352 2.005047 22.380644 -1.057586 -10.387691 -2.236762 5.502091 10.059244 0.332173 4.158951 3.000581 -0.228380 -0.419530 -0.101770 18.575941 -8.587262 5.085230 -29.595178 1.644741 -32.562148 49.781250 -22.384315 24.509454 -1.421437 -8.631172 1.284640 -0.476120 -0.064480 0.058030 -4.328691 -3.147115 -8.560072 16.674606 -8.072289 13.974440 -9.923556 -5.001414 8.110816 4.548513 -7.373393 -15.887140 -22.515843 9.294623 50.070778 -1.777310 2.045980 10.789560 1.775231 9.107466 6.985133 -58.194247 30.401457 -25.792814 -86.670677 -12.283645 -1.346584 -3.063553 3.255450 0.389930 -0.203420 0.205040 -0.001480 -10.312792 -4.505371 11.743797 71.461181 -30.403275 -31.984406 85.713208 14.365790 -0.145170 2.363071 -1.467118 0.015500 -0.083540 0.076360 0.011920 
0.487450 17.866990 -8.470180 -0.435146 17.177922 1.764661 -15.040896 12.814682 1.966854 21.716687 -1.024179 -9.708975 -1.370751 5.220171 9.527010 0.302170 4.092996 3.061522 -0.223300 -0.407260 -0.123890 18.572240 -8.700138 4.919988 -28.084503 2.069546 -32.560752 46.757533 -22.442284 26.541088 -1.380927 -8.641642 1.288574 -0.449670 -0.025960 0.052260 -4.347380 -3.192435 -8.377873 17.049205 -8.650187 14.044855 -10.746955 -5.673573 7.511127 4.501031 -8.811193 -14.693170 -24.757473 10.067556 45.302804 -2.119220 2.828350 7.958020 0.960343 12.060028 6.121878 -60.398795 30.877435 -26.581531 -82.942130 -13.952266 0.034175 -3.101935 3.219183 0.383310 -0.190910 0.178110 0.015720 -9.474676 -6.652025 10.501886 72.362822 -29.239328 -31.866556 80.586462 13.584208 -0.428597 2.395330 -1.417000 -0.007540 -0.049860 0.084980 0.019170 
0.435300 17.833800 -8.421060 -0.097769 16.856570 2.406947 -15.043702 12.951729 2.015395 21.314546 -1.018656 -9.782119 -0.872721 5.035649 9.105684 0.277487 4.048842 3.100433 -0.232010 -0.413840 -0.148120 18.540097 -8.853187 4.684785 -25.632743 2.756522 -32.691513 42.031708 -22.330271 29.676456 -1.311450 -8.624306 1.298482 -0.436700 0.014740 0.051050 -4.316695 -3.267812 -8.236842 17.357440 -8.957936 14.428531 -10.823524 -6.135115 6.219554 4.432855 -9.870433 -13.617627 -26.107154 10.693393 41.269123 -2.404050 3.640880 6.281590 0.302141 14.760077 5.109627 -62.504810 30.285525 -26.697567 -78.536361 -14.592504 0.647279 -3.165460 3.183620 0.367960 -0.169810 0.146070 0.024950 -8.766373 -8.683853 9.484687 72.051594 -28.543813 -31.123288 76.145624 13.652950 -0.042332 2.419273 -1.381852 -0.027600 -0.029060 0.099640 0.025110 
0.384830 17.778540 -8.357930 0.400930 16.408697 3.350694 -15.046411 13.054947 2.058263 20.604257 -1.024021 -9.694945 -0.638883 4.862458 8.510578 0.250020 4.009961 3.140069 -0.243190 -0.416840 -0.172330 18.518989 -9.014394 4.455193 -23.514676 3.280138 -32.850669 37.079740 -21.845247 32.713886 -1.222294 -8.583883 1.310519 -0.416360 0.063450 0.061730 -4.293964 -3.277526 -8.079081 17.192977 -9.249083 14.060312 -10.716056 -6.768379 5.009732 4.126551 -10.620957 -12.206720 -26.460870 11.228804 37.871279 -3.394730 4.912070 5.142390 -0.621227 17.312249 4.025773 -64.918887 29.454195 -26.804811 -71.543112 -14.071550 0.143152 -3.282722 3.114426 0.330800 -0.125430 0.106900 0.031760 -7.429973 -10.840590 8.059153 71.039110 -26.677566 -29.300815 70.842041 14.068733 0.705621 2.448214 -1.371997 -0.043410 -0.015800 0.117610 0.031760 
0.327750 17.738110 -8.291080 0.706686 15.127415 4.122439 -15.042481 13.224385 2.057388 19.738871 -0.975811 -9.773576 -0.161184 4.765185 8.810978 0.210143 3.971929 3.180325 -0.271570 -0.438740 -0.205140 18.501503 -9.165953 4.271399 -20.953438 4.103589 -33.471483 31.834626 -21.236840 36.525952 -1.149893 -8.564297 1.332212 -0.406070 0.125680 0.046470 -4.273975 -3.352459 -7.923676 17.355741 -9.938772 14.176465 -11.056404 -7.639384 2.841089 4.063145 -11.541423 -11.250057 -27.810538 13.354031 34.997309 -3.635130 6.904870 4.703880 -2.440505 19.075438 3.105648 -67.503998 29.211368 -27.377667 -63.489317 -13.851247 -0.457563 -3.411114 2.978322 0.315410 -0.090040 0.066730 0.036830 -5.598916 -12.134326 6.866053 69.402833 -24.720378 -27.296355 65.880386 15.738878 2.097090 2.474901 -1.340603 -0.082560 0.028430 0.145720 0.034550 
